<?xml version="1.0" encoding="UTF-8"?>
<svg width="256px" height="256px" viewBox="0 0 256 256" version="1.1" xmlns="http://www.w3.org/2000/svg" xmlns:xlink="http://www.w3.org/1999/xlink" preserveAspectRatio="xMidYMid">
    <title>Arbitrum</title>
    <g>
        <path d="M128,0 C198.692,0 256,57.308 256,128 C256,198.692 198.692,256 128,256 C57.308,256 0,198.692 0,128 C0,57.308 57.308,0 128,0 Z" fill="#2D374B"></path>
        <path d="M183.196,207.999 L183.196,208 L72.512,208 L72.512,207.999 L128.001,48 L183.196,207.999 Z M136.191,137.15 L119.809,137.15 L128,114.947 L136.191,137.15 Z M131.883,152.834 L124.117,152.834 L111.752,185.35 L144.248,185.35 L131.883,152.834 Z M169.348,185.35 L149.42,185.35 L161.785,152.834 L174.15,185.35 L169.348,185.35 Z M96.58,185.35 L76.652,185.35 L81.85,185.35 L94.215,152.834 L106.58,185.35 L96.58,185.35 Z" fill="#FFFFFF"></path>
    </g>
</svg>
