<?xml version="1.0" encoding="UTF-8"?>
<svg width="256px" height="256px" viewBox="0 0 256 256" version="1.1" xmlns="http://www.w3.org/2000/svg" xmlns:xlink="http://www.w3.org/1999/xlink" preserveAspectRatio="xMidYMid">
    <title>Avalanche</title>
    <g>
        <path d="M128,0 C198.692,0 256,57.308 256,128 C256,198.692 198.692,256 128,256 C57.308,256 0,198.692 0,128 C0,57.308 57.308,0 128,0 Z" fill="#E84142"></path>
        <path d="M171.683,128.469 L143.477,81.973 C142.321,79.891 140.075,78.605 137.657,78.605 L137.17,78.605 C134.752,78.605 132.506,79.891 131.35,81.973 L126.416,90.33 L118.537,76.928 C117.381,74.846 115.135,73.56 112.717,73.56 L112.23,73.56 C109.812,73.56 107.566,74.846 106.41,76.928 L78.204,128.469 C77.048,130.551 77.048,133.123 78.204,135.205 L92.433,160.125 C93.589,162.207 95.835,163.493 98.253,163.493 L98.74,163.493 C101.158,163.493 103.404,162.207 104.56,160.125 L120.277,133.123 L128.156,146.525 C129.312,148.607 131.558,149.893 133.976,149.893 L134.463,149.893 C136.881,149.893 139.127,148.607 140.283,146.525 L171.683,93.389 C172.839,91.307 172.839,88.735 171.683,86.653 C170.527,84.571 168.281,83.285 165.863,83.285 L165.376,83.285 C162.958,83.285 160.712,84.571 159.556,86.653 L134.463,130.551 L126.584,117.149 C125.428,115.067 123.182,113.781 120.764,113.781 L120.277,113.781 C117.859,113.781 115.613,115.067 114.457,117.149 L98.74,144.151 L90.861,130.749 L112.23,93.389 L120.109,106.791 L114.944,115.863 C113.788,117.945 113.788,120.517 114.944,122.599 L126.584,142.825 C127.74,144.907 129.986,146.193 132.404,146.193 L132.891,146.193 C135.309,146.193 137.555,144.907 138.711,142.825 L171.683,128.469 Z" fill="#FFFFFF" fill-rule="nonzero"></path>
    </g>
</svg>
