<?xml version="1.0" encoding="UTF-8"?>
<svg width="256px" height="256px" viewBox="0 0 256 256" version="1.1" xmlns="http://www.w3.org/2000/svg" xmlns:xlink="http://www.w3.org/1999/xlink" preserveAspectRatio="xMidYMid">
    <title>BNB Chain</title>
    <g>
        <path d="M128,0 C198.692,0 256,57.308 256,128 C256,198.692 198.692,256 128,256 C57.308,256 0,198.692 0,128 C0,57.308 57.308,0 128,0 Z" fill="#F3BA2F"></path>
        <path d="M127.999,59.6969 L74.4119,113.284 L96.3909,135.263 L127.999,103.655 L159.609,135.263 L181.588,113.284 L127.999,59.6969 Z M127.999,152.305 L96.3909,120.696 L74.4119,142.675 L127.999,196.262 L181.588,142.675 L159.609,120.696 L127.999,152.305 Z" fill="#FFFFFF"></path>
        <path d="M160.4,127.999 L182.379,106.02 L160.4,84.0409 L138.421,106.02 L160.4,127.999 Z M95.5999,127.999 L117.579,106.02 L95.5999,84.0409 L73.6209,106.02 L95.5999,127.999 Z" fill="#FFFFFF"></path>
    </g>
</svg>
