<?xml version="1.0" encoding="UTF-8"?>
<svg width="256px" height="256px" viewBox="0 0 256 256" version="1.1" xmlns="http://www.w3.org/2000/svg" xmlns:xlink="http://www.w3.org/1999/xlink" preserveAspectRatio="xMidYMid">
    <title>Optimism</title>
    <g>
        <path d="M128,0 C198.692,0 256,57.308 256,128 C256,198.692 198.692,256 128,256 C57.308,256 0,198.692 0,128 C0,57.308 57.308,0 128,0 Z" fill="#FF0420"></path>
        <path d="M87.1383,152.317 C79.5323,152.317 73.4503,150.117 68.8923,145.718 C64.3343,141.318 62.0553,135.458 62.0553,128.137 C62.0553,120.816 64.3343,114.957 68.8923,110.557 C73.4503,106.157 79.5323,103.957 87.1383,103.957 C94.7443,103.957 100.826,106.157 105.384,110.557 C109.942,114.957 112.221,120.816 112.221,128.137 C112.221,135.458 109.942,141.318 105.384,145.718 C100.826,150.117 94.7443,152.317 87.1383,152.317 Z M87.1383,141.758 C91.1783,141.758 94.2863,140.518 96.4623,138.037 C98.6383,135.557 99.7263,132.237 99.7263,128.077 C99.7263,123.917 98.6383,120.597 96.4623,118.117 C94.2863,115.637 91.1783,114.397 87.1383,114.397 C83.0983,114.397 79.9903,115.637 77.8143,118.117 C75.6383,120.597 74.5503,123.917 74.5503,128.077 C74.5503,132.237 75.6383,135.557 77.8143,138.037 C79.9903,140.518 83.0983,141.758 87.1383,141.758 Z M143.317,152.317 C135.711,152.317 129.629,150.117 125.071,145.718 C120.513,141.318 118.234,135.458 118.234,128.137 C118.234,120.816 120.513,114.957 125.071,110.557 C129.629,106.157 135.711,103.957 143.317,103.957 C150.923,103.957 157.005,106.157 161.563,110.557 C166.121,114.957 168.4,120.816 168.4,128.137 C168.4,135.458 166.121,141.318 161.563,145.718 C157.005,150.117 150.923,152.317 143.317,152.317 Z M143.317,141.758 C147.357,141.758 150.465,140.518 152.641,138.037 C154.817,135.557 155.905,132.237 155.905,128.077 C155.905,123.917 154.817,120.597 152.641,118.117 C150.465,115.637 147.357,114.397 143.317,114.397 C139.277,114.397 136.169,115.637 133.993,118.117 C131.817,120.597 130.729,123.917 130.729,128.077 C130.729,132.237 131.817,135.557 133.993,138.037 C136.169,140.518 139.277,141.758 143.317,141.758 Z M193.945,151.677 L181.45,151.677 L181.45,104.597 L193.945,104.597 L193.945,151.677 Z M193.945,100.357 L181.45,100.357 L181.45,88.5166 L193.945,88.5166 L193.945,100.357 Z" fill="#FFFFFF" fill-rule="nonzero"></path>
    </g>
</svg>
