<svg width="400" height="400" viewBox="0 0 400 400" fill="none" xmlns="http://www.w3.org/2000/svg">
  <rect width="400" height="400" rx="200" fill="#F0F6FF"/>
  <path d="M251.306 139.648C245.415 136.175 238.097 136.175 232.207 139.648L208.111 153.867L191.889 163.114L167.793 177.333C161.903 180.807 154.585 180.807 148.694 177.333L129.963 166.268C124.072 162.794 120.413 156.447 120.413 149.496V127.584C120.413 120.632 124.072 114.286 129.963 110.812L148.475 99.9654C154.366 96.4917 161.684 96.4917 167.574 99.9654L186.304 111.03C192.195 114.504 195.854 120.85 195.854 127.802V142.021L212.075 132.774V118.555C212.075 111.603 208.417 105.256 202.526 101.782L167.793 81.6542C161.903 78.1805 154.585 78.1805 148.694 81.6542L113.303 101.782C107.413 105.256 103.754 111.603 103.754 118.555V158.525C103.754 165.477 107.413 171.823 113.303 175.297L148.694 195.425C154.585 198.899 161.903 198.899 167.793 195.425L191.889 181.425L208.111 172.179L232.207 158.178C238.097 154.705 245.415 154.705 251.306 158.178L269.818 169.025C275.709 172.499 279.368 178.845 279.368 185.797V207.709C279.368 214.661 275.709 221.007 269.818 224.481L251.306 235.328C245.415 238.801 238.097 238.801 232.207 235.328L213.477 224.263C207.586 220.789 203.927 214.443 203.927 207.491V193.272L187.706 202.518V216.737C187.706 223.689 191.364 230.036 197.255 233.51L232.207 253.637C238.097 257.111 245.415 257.111 251.306 253.637L286.697 233.51C292.588 230.036 296.246 223.689 296.246 216.737V176.768C296.246 169.816 292.588 163.469 286.697 159.995L251.306 139.648Z" fill="#8247E5"/>
</svg>
